# xmcd
#
# Track frame offsets: 
#        150
#        10425
#        23119
#        36198
#        47795
#        59467
#        71121
#        83459
#        93997
#        106222
#        119722
#        133429
#        146367
#        157317
#        167442
#        180539
#        190439
#        202552
#        215940
#        227622
#        238872
#        249635
#        262385
#        274489
#        285064
#        298058
#        309355
#        323062
#        334416
#
# Disc length: 4641 seconds
#
# Revision: 1
# Processed by: cddbd v1.5.2PL0 Copyright (c) Steve Scherf et al.
# Submitted via: ExactAudioCopyFreeDBPlugin 1.0
#
DISCID=c0121f1d
DTITLE=John Lee Hooker - I'm John Lee Hooker and Travelin'
DYEAR=2011
DGENRE=Blues
TTITLE0=Dimples
TTITLE1=Hobo Blues
TTITLE2=I'm So Excited
TTITLE3=I Love You Honey
TTITLE4=Boogie Chillun
TTITLE5=Little Wheel
TTITLE6=I'm In The Mood
TTITLE7=Maudie
TTITLE8=Crawlin' King Snake
TTITLE9=Every Night
TTITLE10=Time Is Marching
TTITLE11=Baby Lee
TTITLE12=No Shoes
TTITLE13=I Wanna Walk
TTITLE14=Canal Street Blues
TTITLE15=Run On
TTITLE16=I'm A Stranger
TTITLE17=Whiskey And Wimmen
TTITLE18=Solid Sender
TTITLE19=Sunny Land
TTITLE20=Goin' To California
TTITLE21=I Can't Believe
TTITLE22=I'll Know Tonight
TTITLE23=Dusty Road
TTITLE24=Mambo Chillun
TTITLE25=Baby, Please Don't Go
TTITLE26=Time Is Marching
TTITLE27=Snake, Holler And Run
TTITLE28=Boogie Rambler
EXTD=
EXTT0=
EXTT1=
EXTT2=
EXTT3=
EXTT4=
EXTT5=
EXTT6=
EXTT7=
EXTT8=
EXTT9=
EXTT10=
EXTT11=
EXTT12=
EXTT13=
EXTT14=
EXTT15=
EXTT16=
EXTT17=
EXTT18=
EXTT19=
EXTT20=
EXTT21=
EXTT22=
EXTT23=
EXTT24=
EXTT25=
EXTT26=
EXTT27=
EXTT28=
PLAYORDER=
